<svg width="21" height="20" viewBox="0 0 21 20" fill="none" xmlns="http://www.w3.org/2000/svg">
<path d="M20 0H14.8772C14.3249 0 13.8772 0.447715 13.8772 0.999999V6.12277C13.8772 6.67505 14.3249 7.12277 14.8772 7.12277H20C20.5523 7.12277 21 6.67505 21 6.12277V1C21 0.447715 20.5523 0 20 0Z" fill="white"/>
<path d="M10.3295 4.32945L6.70711 0.707107C6.31658 0.316582 5.68342 0.316582 5.29289 0.707106L1.67055 4.32945C1.28002 4.71998 1.28002 5.35314 1.67055 5.74366L5.29289 9.36601C5.68342 9.75653 6.31658 9.75653 6.70711 9.36601L10.3295 5.74366C10.72 5.35314 10.72 4.71998 10.3295 4.32945Z" fill="white"/>
<path d="M8.12277 12H3C2.44772 12 2 12.4477 2 13V18.1228C2 18.6751 2.44771 19.1228 3 19.1228H8.12277C8.67505 19.1228 9.12277 18.6751 9.12277 18.1228V13C9.12277 12.4477 8.67505 12 8.12277 12Z" fill="white"/>
<path d="M20 12.8772H14.8772C14.3249 12.8772 13.8772 13.3249 13.8772 13.8772V19C13.8772 19.5523 14.3249 20 14.8772 20H20C20.5523 20 21 19.5523 21 19V13.8772C21 13.3249 20.5523 12.8772 20 12.8772Z" fill="white"/>
</svg>
