<svg width="34" height="34" viewBox="0 0 34 34" fill="none" xmlns="http://www.w3.org/2000/svg">
<path d="M15.8154 22.4834C15.7437 22.5626 15.6769 22.6461 15.6154 22.7334C15.5523 22.8263 15.5019 22.9272 15.4654 23.0334C15.4173 23.1279 15.3836 23.229 15.3654 23.3334C15.3572 23.4443 15.3572 23.5557 15.3654 23.6667C15.3597 23.8853 15.4054 24.1022 15.4987 24.3C15.5736 24.5069 15.693 24.6947 15.8485 24.8502C16.004 25.0058 16.1919 25.1252 16.3987 25.2C16.5982 25.2882 16.8139 25.3338 17.032 25.3338C17.2502 25.3338 17.4659 25.2882 17.6654 25.2C17.8722 25.1252 18.06 25.0058 18.2156 24.8502C18.3711 24.6947 18.4905 24.5069 18.5654 24.3C18.6394 24.0974 18.6733 23.8823 18.6654 23.6667C18.6666 23.4474 18.6246 23.2299 18.5417 23.0269C18.4587 22.8238 18.3365 22.6391 18.182 22.4834C18.0271 22.3272 17.8428 22.2032 17.6397 22.1186C17.4366 22.0339 17.2187 21.9904 16.9987 21.9904C16.7787 21.9904 16.5608 22.0339 16.3577 22.1186C16.1546 22.2032 15.9703 22.3272 15.8154 22.4834ZM16.9987 0.333374C13.7024 0.333374 10.48 1.31086 7.7392 3.14221C4.99838 4.97357 2.86217 7.57655 1.60071 10.622C0.339253 13.6674 0.00919709 17.0185 0.652284 20.2515C1.29537 23.4846 2.88272 26.4543 5.21359 28.7852C7.54447 31.116 10.5142 32.7034 13.7472 33.3465C16.9802 33.9896 20.3313 33.6595 23.3768 32.398C26.4222 31.1366 29.0252 29.0004 30.8565 26.2595C32.6879 23.5187 33.6654 20.2964 33.6654 17C33.6654 14.8113 33.2343 12.6441 32.3967 10.622C31.5591 8.59989 30.3315 6.76257 28.7838 5.21493C27.2362 3.66728 25.3989 2.43963 23.3768 1.60205C21.3547 0.76447 19.1874 0.333374 16.9987 0.333374ZM16.9987 30.3334C14.3616 30.3334 11.7838 29.5514 9.5911 28.0863C7.39845 26.6212 5.68948 24.5388 4.68031 22.1025C3.67114 19.6661 3.4071 16.9853 3.92157 14.3988C4.43604 11.8124 5.70591 9.43665 7.57061 7.57195C9.43532 5.70725 11.8111 4.43737 14.3975 3.9229C16.9839 3.40843 19.6648 3.67248 22.1012 4.68165C24.5375 5.69082 26.6199 7.39978 28.085 9.59244C29.55 11.7851 30.332 14.363 30.332 17C30.332 20.5363 28.9273 23.9276 26.4268 26.4281C23.9263 28.9286 20.5349 30.3334 16.9987 30.3334ZM16.9987 8.66671C16.1205 8.66614 15.2576 8.89691 14.4969 9.33578C13.7362 9.77465 13.1045 10.4061 12.6654 11.1667C12.5448 11.3564 12.4638 11.5685 12.4273 11.7903C12.3908 12.0121 12.3996 12.239 12.4531 12.4574C12.5066 12.6757 12.6037 12.8809 12.7385 13.0608C12.8734 13.2406 13.0432 13.3913 13.2378 13.5038C13.4324 13.6163 13.6478 13.6882 13.8709 13.7153C14.0941 13.7424 14.3204 13.7241 14.5363 13.6615C14.7521 13.5989 14.9531 13.4932 15.1271 13.3509C15.3011 13.2086 15.4445 13.0325 15.5487 12.8334C15.6955 12.579 15.907 12.368 16.1616 12.2217C16.4162 12.0753 16.705 11.9989 16.9987 12C17.4407 12 17.8647 12.1756 18.1772 12.4882C18.4898 12.8008 18.6654 13.2247 18.6654 13.6667C18.6654 14.1087 18.4898 14.5327 18.1772 14.8452C17.8647 15.1578 17.4407 15.3334 16.9987 15.3334C16.5567 15.3334 16.1328 15.509 15.8202 15.8215C15.5076 16.1341 15.332 16.558 15.332 17V18.6667C15.332 19.1087 15.5076 19.5327 15.8202 19.8452C16.1328 20.1578 16.5567 20.3334 16.9987 20.3334C17.4407 20.3334 17.8647 20.1578 18.1772 19.8452C18.4898 19.5327 18.6654 19.1087 18.6654 18.6667V18.3667C19.7677 17.9667 20.6943 17.1921 21.2833 16.1782C21.8723 15.1642 22.0863 13.9755 21.8877 12.8199C21.6891 11.6642 21.0907 10.6151 20.197 9.8559C19.3033 9.09673 18.1713 8.67581 16.9987 8.66671Z" fill="#FFBC57"/>
</svg>
