<svg width="40" height="30" viewBox="0 0 40 30" fill="none" xmlns="http://www.w3.org/2000/svg">
<path d="M39.0244 18.0976H38.0488V1.12195C38.0488 0.634146 37.6585 0.146341 37.0732 0.146341C36.4878 0.146341 36.0976 0.536585 36.0976 1.12195V1.60976C25.561 -0.536585 14.1463 -0.536585 3.60976 1.60976V1.12195C3.60976 0.634146 3.21951 0.146341 2.63415 0.146341C2.14634 0.146341 1.65854 0.536585 1.65854 1.12195V18H0.97561C0.487805 18 0 18.3902 0 18.9756V22.9756C0 23.4634 0.390244 23.9512 0.97561 23.9512H3.60976L2.82927 28.5366C2.82927 28.8293 2.82927 29.0244 3.02439 29.2195C3.12195 29.4146 3.41463 29.5122 3.60976 29.6098H3.80488C4.29268 29.6098 4.68293 29.3171 4.68293 28.8293L5.46341 23.9512H34.6341L35.4146 28.8293C35.5122 29.3171 35.9024 29.6098 36.2927 29.6098H36.4878C36.9756 29.5122 37.3659 29.0244 37.2683 28.5366L36.4878 23.9512H39.0244C39.5122 23.9512 40 23.561 40 22.9756V18.9756C40 18.4878 39.6098 18.0976 39.0244 18.0976ZM33.8537 12.8293V11.7561C33.8537 10 32.3902 8.53659 30.6341 8.53659H23.2195C21.4634 8.53659 20 10 20 11.7561V12.7317H19.9024V11.7561C19.9024 10 18.439 8.53659 16.6829 8.53659H9.36585C7.60976 8.53659 6.14634 10 6.14634 11.7561V12.8293C4.78049 13.2195 3.80488 14.4878 3.80488 15.8537V18V3.56098C14.2439 1.31707 25.8537 1.31707 36.2927 3.56098V18V15.8537C36.1951 14.3902 35.2195 13.122 33.8537 12.8293ZM8 12.6341V11.6585C8 10.9756 8.58537 10.2927 9.36585 10.2927H16.7805C17.4634 10.2927 18.1463 10.878 18.1463 11.6585V12.6341H8ZM21.9512 12.6341V11.6585C21.9512 10.9756 22.5366 10.2927 23.3171 10.2927H30.7317C31.4146 10.2927 32.0976 10.878 32.0976 11.6585V12.6341H21.9512ZM5.65854 15.8537C5.65854 15.1707 6.2439 14.4878 7.02439 14.4878H33.1707C33.8537 14.4878 34.5366 15.0732 34.5366 15.8537V18H5.65854V15.8537ZM38.1463 19.9512V22.0976H1.85366V19.9512H38.1463Z" fill="#2B2929"/>
</svg>
