<svg width="31" height="40" viewBox="0 0 31 40" fill="none" xmlns="http://www.w3.org/2000/svg">
<path d="M15.3171 40C16.0715 40 16.683 39.3885 16.683 38.6342C16.683 37.8798 16.0715 37.2683 15.3171 37.2683C14.5628 37.2683 13.9513 37.8798 13.9513 38.6342C13.9513 39.3885 14.5628 40 15.3171 40Z" fill="#2B2929"/>
<path d="M24.0977 40C24.852 40 25.4635 39.3885 25.4635 38.6342C25.4635 37.8798 24.852 37.2683 24.0977 37.2683C23.3433 37.2683 22.7318 37.8798 22.7318 38.6342C22.7318 39.3885 23.3433 40 24.0977 40Z" fill="#2B2929"/>
<path d="M6.53663 40C7.29097 40 7.90248 39.3885 7.90248 38.6342C7.90248 37.8798 7.29097 37.2683 6.53663 37.2683C5.78229 37.2683 5.17078 37.8798 5.17078 38.6342C5.17078 39.3885 5.78229 40 6.53663 40Z" fill="#2B2929"/>
<path d="M23.8049 20.5854C24.8781 15.122 25.3659 9.65854 25.3659 4.19512C25.3659 1.85366 23.5123 0 21.2683 0H9.56103C7.21957 0 5.26835 1.85366 5.26835 4.19512C5.26835 9.65854 5.85371 15.122 6.82932 20.5854C5.56103 21.0732 4.68298 22.3415 4.68298 23.7073V25.3659C4.68298 26.6341 5.65859 27.6098 6.92689 27.6098H14.244V31.7073C11.122 31.9024 8.19518 32.878 5.95128 34.439C5.75615 34.6341 5.56103 34.8293 5.56103 35.122C5.56103 35.4146 5.56103 35.7073 5.75615 35.9024C6.04884 36.3902 6.73176 36.4878 7.21957 36.1951C9.17079 34.8293 11.7074 33.9512 14.3415 33.7561V35.3171C14.3415 35.9024 14.8293 36.2927 15.3171 36.2927C15.8049 36.2927 16.2927 35.8049 16.2927 35.3171V33.7561C18.9269 33.9512 21.4635 34.7317 23.4147 36.1951C23.6098 36.2927 23.8049 36.3902 24.0001 36.3902C24.2927 36.3902 24.683 36.1951 24.8781 36C25.0732 35.8049 25.0732 35.5122 25.0732 35.2195C25.0732 34.9268 24.8781 34.7317 24.683 34.5366C22.3415 32.8781 19.4147 31.9024 16.3903 31.8049V27.7073H23.7074C24.9757 27.7073 25.9513 26.7317 25.9513 25.4634V23.8049C25.9513 22.3415 25.0732 21.0732 23.8049 20.5854ZM8.19518 22.3415H22.5366C23.3171 22.3415 23.9025 22.9268 23.9025 23.7073V25.3659C23.9025 25.4634 23.8049 25.561 23.7074 25.561H7.02445C6.92689 25.561 6.82932 25.4634 6.82932 25.3659V23.7073C6.82932 22.9268 7.41469 22.3415 8.19518 22.3415ZM21.8537 20.2927H8.87811C7.9025 15.0244 7.31713 9.56098 7.31713 4.19512C7.31713 3.02439 8.29274 2.04878 9.46347 2.04878H21.1708C22.3415 2.04878 23.3171 3.02439 23.3171 4.19512C23.3171 9.56098 22.8293 14.9268 21.8537 20.2927Z" fill="#2B2929"/>
<path d="M5.7561 17.3659V14.7317C5.7561 13.8537 4.97561 13.0732 4.09756 13.0732H1.65854C0.780488 13.0732 0 13.8537 0 14.7317V17.3659C0 18.9268 1.26829 20.2927 2.92683 20.2927C4.4878 20.2927 5.7561 18.9268 5.7561 17.3659ZM3.70732 15.122V17.4634C3.70732 17.9512 3.31707 18.3415 2.82927 18.3415C2.34146 18.3415 1.95122 17.9512 1.95122 17.4634V15.122H3.70732Z" fill="#2B2929"/>
<path d="M28.9756 13.0732H26.5366C25.6585 13.0732 24.8781 13.8537 24.8781 14.7317V17.3659C24.8781 18.9268 26.1463 20.2927 27.8049 20.2927C29.3659 20.2927 30.7317 19.0244 30.7317 17.3659V14.7317C30.7317 13.7561 29.9512 13.0732 28.9756 13.0732ZM28.6829 15.122V17.4634C28.6829 17.9512 28.2927 18.3415 27.8049 18.3415C27.3171 18.3415 26.9268 17.9512 26.9268 17.4634V15.122H28.6829Z" fill="#2B2929"/>
<path d="M15.317 7.51221C14.7317 7.51221 14.3414 8.00001 14.3414 8.48782V17.6585C14.3414 18.2439 14.8292 18.6342 15.317 18.6342C15.8048 18.6342 16.2927 18.1464 16.2927 17.6585V8.58538C16.3902 8.00001 15.9024 7.51221 15.317 7.51221Z" fill="#2B2929"/>
</svg>
