<svg width="40" height="39" viewBox="0 0 40 39" fill="none" xmlns="http://www.w3.org/2000/svg">
<path d="M10.511 15.6691C11.2896 15.6691 11.9709 14.9878 11.9709 14.2092C11.9709 13.4307 11.2896 12.7494 10.511 12.7494C9.73241 12.7494 9.05115 13.4307 9.05115 14.2092C9.05115 14.9878 9.73241 15.6691 10.511 15.6691Z" fill="#2B2929"/>
<path d="M10.511 24.3309C11.2896 24.3309 11.9709 23.6496 11.9709 22.871C11.9709 22.0925 11.2896 21.4112 10.511 21.4112C9.73241 21.4112 9.05115 22.0925 9.05115 22.871C9.05115 23.6496 9.73241 24.3309 10.511 24.3309Z" fill="#2B2929"/>
<path d="M29.3917 15.6691C30.1703 15.6691 30.8516 14.9878 30.8516 14.2092C30.8516 13.4307 30.1703 12.7494 29.3917 12.7494C28.6132 12.7494 27.9319 13.4307 27.9319 14.2092C27.9319 14.9878 28.6132 15.6691 29.3917 15.6691Z" fill="#2B2929"/>
<path d="M39.9027 1.07056C39.9027 0.486618 39.4161 0 38.8321 0H1.07056C0.486618 0 0 0.486618 0 1.07056V9.73236V9.82968V27.3479C0 27.9319 0.486618 28.4185 1.07056 28.4185H7.0073L5.45012 37.4696C5.45012 37.7616 5.45012 38.0535 5.64477 38.2482C5.83942 38.4428 6.03406 38.6375 6.32603 38.6375H6.52068C7.0073 38.6375 7.49392 38.2482 7.59124 37.7616L9.14842 28.3212H30.8516L32.4088 37.7616C32.5061 38.2482 32.8954 38.6375 33.4793 38.6375H33.674C34.2579 38.5401 34.6472 37.9562 34.5499 37.4696L32.9927 28.4185H38.9294C39.5134 28.4185 40 27.9319 40 27.3479V9.92701V9.82968L39.9027 1.07056ZM37.8589 19.6594V26.2774H21.0219V19.6594H37.8589ZM37.8589 10.9002V17.5182H21.0219V10.9002H37.8589ZM37.8589 2.0438V8.6618H21.0219V2.0438H37.8589ZM18.8808 19.6594V26.2774H2.0438V19.6594H18.8808ZM18.8808 10.9002V17.5182H2.0438V10.9002H18.8808ZM18.8808 2.0438V8.6618H2.0438V2.0438H18.8808Z" fill="#2B2929"/>
<path d="M10.511 6.81265C11.2896 6.81265 11.9709 6.13139 11.9709 5.3528C11.9709 4.57421 11.2896 3.89294 10.511 3.89294C9.73241 3.89294 9.05115 4.57421 9.05115 5.3528C9.05115 6.13139 9.73241 6.81265 10.511 6.81265Z" fill="#2B2929"/>
<path d="M29.3917 6.81265C30.1703 6.81265 30.8516 6.13138 30.8516 5.3528C30.8516 4.57421 30.1703 3.99026 29.3917 3.99026C28.6132 3.99026 27.9319 4.67153 27.9319 5.45012C27.9319 6.22871 28.6132 6.81265 29.3917 6.81265Z" fill="#2B2929"/>
<path d="M29.3917 24.3309C30.1703 24.3309 30.8516 23.6496 30.8516 22.871C30.8516 22.0925 30.1703 21.4112 29.3917 21.4112C28.6132 21.4112 27.9319 22.0925 27.9319 22.871C27.9319 23.6496 28.6132 24.3309 29.3917 24.3309Z" fill="#2B2929"/>
</svg>
