<svg width="34" height="40" viewBox="0 0 34 40" fill="none" xmlns="http://www.w3.org/2000/svg">
<path d="M11.6098 26.0488H4.39028C3.31711 26.0488 2.53662 26.9268 2.53662 27.9024V32.0975C2.53662 33.1707 3.41467 33.9512 4.39028 33.9512H11.6098C12.683 33.9512 13.4635 33.0732 13.4635 32.0975V27.9024C13.561 26.8293 12.683 26.0488 11.6098 26.0488ZM11.7074 32.0975H4.39028V27.9024H11.7074V32.0975Z" fill="#2B2929"/>
<path d="M32.878 20.878H26.9268L27.3171 20.4878C27.6098 20.0975 27.6098 19.5122 27.2195 19.1219C26.8293 18.8293 26.2439 18.8293 25.8537 19.2195L24.878 20.2927V16.5854C24.878 16.0975 24.4878 15.6097 23.9024 15.6097C23.4146 15.6097 22.9268 16 22.9268 16.5854V20.2927L21.9512 19.2195C21.7561 19.0244 21.561 18.9268 21.2683 18.9268C20.9756 18.9268 20.7805 19.0244 20.5854 19.1219C20.1951 19.5122 20.1951 20.0975 20.4878 20.4878L20.7805 20.878H0.97561C0.487805 20.878 0 21.2683 0 21.8536V39.0244C0 39.5122 0.390244 40 0.97561 40H32.9756C33.4634 40 33.9512 39.6097 33.9512 39.0244V21.7561C33.8537 21.2683 33.4634 20.878 32.878 20.878ZM23.122 22.7317V38.1463H16.0976V22.7317H23.122ZM24.9756 38.1463V22.7317H32V38.1463H24.9756ZM1.85366 38.1463V22.7317H14.1463V38.1463H1.85366Z" fill="#2B2929"/>
<path d="M32.878 0H15.1219C14.6341 0 14.1463 0.390244 14.1463 0.97561V5.85366C13.9512 5.65854 13.7561 5.56098 13.4634 5.56098H10.9268V0.97561C10.9268 0.487805 10.5366 0 9.95119 0H6.04875C5.56095 0 5.07314 0.390244 5.07314 0.97561V5.56098H2.53655C2.14631 5.56098 1.75607 5.85366 1.65851 6.14634L0.0975306 10.7317C-3.03686e-05 10.9268 -3.03686e-05 11.3171 0.195092 11.5122C0.390214 11.8049 0.682896 11.9024 0.975579 11.9024H32.9756C33.4634 11.9024 33.9512 11.5122 33.9512 10.9268V0.97561C33.8536 0.390244 33.4634 0 32.878 0ZM16 10.0488V1.85366H23.0244V10.0488H16ZM24.9756 10.0488V1.85366H32V10.0488H24.9756ZM7.02436 6.43902V1.85366H9.07314V6.43902C9.07314 6.92683 9.46338 7.41463 10.0488 7.41463H12.878L13.8536 10.0488H2.24387L3.21948 7.41463H6.04875C6.53655 7.41463 7.02436 7.02439 7.02436 6.43902Z" fill="#2B2929"/>
<path d="M12.3902 23.2195C11.7073 23.2195 11.1219 23.8048 11.1219 24.4878C11.1219 25.1707 11.7073 25.7561 12.3902 25.7561C13.0732 25.7561 13.6585 25.1707 13.6585 24.4878C13.561 23.8048 13.0732 23.2195 12.3902 23.2195Z" fill="#2B2929"/>
<path d="M21.4634 25.6585C22.1463 25.6585 22.7317 25.0732 22.7317 24.3902C22.7317 23.7073 22.1463 23.1219 21.4634 23.1219C20.7804 23.1219 20.1951 23.7073 20.1951 24.3902C20.1951 25.1707 20.7804 25.6585 21.4634 25.6585Z" fill="#2B2929"/>
<path d="M26.6341 23.2195C25.9512 23.2195 25.3658 23.8048 25.3658 24.4878C25.3658 25.1707 25.9512 25.7561 26.6341 25.7561C27.3171 25.7561 27.9024 25.1707 27.9024 24.4878C27.8049 23.8048 27.3171 23.2195 26.6341 23.2195Z" fill="#2B2929"/>
<path d="M21.4634 6.92682C20.7804 6.92682 20.1951 7.51218 20.1951 8.19511C20.1951 8.87804 20.7804 9.4634 21.4634 9.4634C22.1463 9.4634 22.7317 8.87804 22.7317 8.19511C22.6341 7.51218 22.1463 6.92682 21.4634 6.92682Z" fill="#2B2929"/>
<path d="M26.6341 6.92682C25.9512 6.92682 25.3658 7.51218 25.3658 8.19511C25.3658 8.87804 25.9512 9.4634 26.6341 9.4634C27.3171 9.4634 27.9024 8.87804 27.9024 8.19511C27.8049 7.51218 27.3171 6.92682 26.6341 6.92682Z" fill="#2B2929"/>
<path d="M9.46348 25.6585C10.1464 25.6585 10.7318 25.0732 10.7318 24.3902C10.7318 23.7073 10.1464 23.1219 9.46348 23.1219C8.78056 23.1219 8.19519 23.7073 8.19519 24.3902C8.19519 25.1707 8.78056 25.6585 9.46348 25.6585Z" fill="#2B2929"/>
<path d="M6.5366 25.6585C7.21953 25.6585 7.8049 25.0732 7.8049 24.3902C7.8049 23.7073 7.21953 23.1219 6.5366 23.1219C5.85368 23.1219 5.26831 23.7073 5.26831 24.3902C5.36587 25.1707 5.85368 25.6585 6.5366 25.6585Z" fill="#2B2929"/>
<path d="M3.70726 25.6585C4.39018 25.6585 4.97555 25.0732 4.97555 24.3902C4.97555 23.7073 4.39018 23.1219 3.70726 23.1219C3.02433 23.1219 2.43896 23.7073 2.43896 24.3902C2.43896 25.1707 3.02433 25.6585 3.70726 25.6585Z" fill="#2B2929"/>
</svg>
