<svg width="30" height="40" viewBox="0 0 30 40" fill="none" xmlns="http://www.w3.org/2000/svg">
<path d="M25.3659 0H3.70732C1.65854 0 0 1.65854 0 3.70732V36.3902C0 38.3415 1.65854 40 3.70732 40H25.3659C27.4146 40 29.0732 38.3415 29.0732 36.2927V3.70732C29.0732 1.65854 27.4146 0 25.3659 0ZM27.122 3.70732V36.3902C27.122 37.3659 26.3415 38.1463 25.3659 38.1463H3.70732C2.73171 38.1463 1.95122 37.3659 1.95122 36.3902V3.70732C1.95122 2.73171 2.73171 1.95122 3.70732 1.95122H25.3659C26.3415 1.95122 27.122 2.73171 27.122 3.70732Z" fill="#2B2929"/>
<path d="M24.195 32.7805L26.1463 29.8537C26.2438 29.6585 26.3414 29.3658 26.2438 29.0732C26.1463 28.7805 26.0487 28.5854 25.8536 28.4878C25.3658 28.1951 24.7804 28.2927 24.4877 28.7805L23.0243 31.0244L19.9024 26.3415L23.0243 21.6585L24.4877 23.9024C24.7804 24.2927 25.3658 24.4878 25.8536 24.1951C26.3414 23.9024 26.4389 23.3171 26.1463 22.8293L24.195 19.9024L26.1463 16.9756C26.3414 16.7805 26.3414 16.5854 26.3414 16.2927C26.2438 16 26.1463 15.8049 25.9511 15.7073C25.4633 15.4146 24.878 15.5122 24.5853 16L23.1219 18.2439L19.9999 13.561L23.1219 8.87804L24.5853 11.1219C24.878 11.5122 25.4633 11.7073 25.9511 11.4146C26.1463 11.3171 26.3414 11.0244 26.3414 10.8293C26.4389 10.5366 26.3414 10.3415 26.2438 10.0488L24.2926 7.12194L26.2438 4.19512C26.5365 3.70731 26.4389 3.12194 25.9511 2.82926C25.756 2.7317 25.4633 2.63414 25.1706 2.7317C24.878 2.82926 24.6828 2.92682 24.5853 3.12194L23.1219 5.36585L21.6585 3.12194C21.5609 2.92682 21.2682 2.7317 21.0731 2.7317C20.7804 2.7317 20.5853 2.7317 20.2926 2.82926C19.8048 3.12194 19.7072 3.70731 19.9999 4.19512L21.9511 7.12194L18.8292 11.8049L15.7072 7.12194L17.6585 4.19512C17.9511 3.70731 17.8536 3.12194 17.3658 2.82926C17.1706 2.7317 16.878 2.63414 16.5853 2.7317C16.2926 2.82926 16.0975 2.92682 15.9999 3.12194L14.5365 5.36585L13.0731 3.12194C12.7804 2.63414 12.195 2.53658 11.7072 2.82926C11.2194 3.12194 11.1219 3.70731 11.4146 4.19512L13.3658 7.12194L10.2438 11.8049L7.21943 7.2195L9.17065 4.29268C9.46333 3.80487 9.36577 3.21951 8.87797 2.92682C8.68284 2.7317 8.39016 2.63414 8.09748 2.7317C7.90236 2.7317 7.70723 2.92682 7.51211 3.12194L6.0487 5.46341L4.48772 3.12194C4.19504 2.7317 3.60967 2.53658 3.12187 2.82926C2.73162 3.21951 2.5365 3.80487 2.82918 4.19512L4.7804 7.12194L2.82918 10.0488C2.5365 10.5366 2.63406 11.1219 3.12187 11.4146C3.51211 11.7073 4.19504 11.6097 4.48772 11.1219L5.95114 8.87804L9.07309 13.561L5.95114 18.2439L4.48772 16C4.19504 15.5122 3.60967 15.4146 3.12187 15.7073C2.63406 16 2.5365 16.5854 2.82918 17.0732L4.7804 20L2.82918 22.9268C2.5365 23.4146 2.63406 24 3.12187 24.2927C3.51211 24.5854 4.19504 24.4878 4.48772 24L5.95114 21.7561L9.07309 26.439L5.95114 31.1219L4.48772 28.878C4.19504 28.3902 3.60967 28.2927 3.12187 28.5854C2.92675 28.6829 2.73162 28.9756 2.73162 29.1707C2.63406 29.4634 2.73162 29.6585 2.82918 29.9512L4.7804 32.878L2.82918 35.8049C2.5365 36.2927 2.63406 36.878 3.12187 37.1707C3.51211 37.4634 4.19504 37.3658 4.48772 36.878L5.95114 34.6341L7.41455 36.878C7.70723 37.2683 8.2926 37.4634 8.7804 37.1707C9.26821 36.878 9.36577 36.2927 9.07309 35.8049L7.12187 32.878L10.2438 28.1951L13.3658 32.878L11.4146 35.8049C11.1219 36.2927 11.2194 36.878 11.7072 37.1707C12.0975 37.4634 12.7804 37.3658 13.0731 36.878L14.5365 34.6341L15.9999 36.878C16.2926 37.2683 16.878 37.4634 17.3658 37.1707C17.8536 36.878 17.9511 36.2927 17.6585 35.8049L15.7072 32.878L18.8292 28.1951L21.9511 32.878L19.9999 35.8049C19.7072 36.2927 19.8048 36.878 20.2926 37.1707C20.6828 37.4634 21.3658 37.3658 21.6585 36.878L23.1219 34.6341L24.5853 36.878C24.7804 37.1707 25.0731 37.2683 25.3658 37.2683C25.5609 37.2683 25.756 37.1707 25.9511 37.0732C26.4389 36.7805 26.5365 36.1951 26.2438 35.7073L24.195 32.7805ZM21.8536 20L18.7316 24.6829L15.6097 20L18.7316 15.3171L21.8536 20ZM17.5609 26.439L14.4389 31.1219L11.317 26.439L14.4389 21.7561L17.5609 26.439ZM11.4146 13.561L14.5365 8.87804L17.6585 13.561L14.5365 18.2439L11.4146 13.561ZM13.3658 20L10.2438 24.6829L7.12187 20L10.2438 15.3171L13.3658 20Z" fill="#2B2929"/>
</svg>
