<svg width="40" height="30" viewBox="0 0 40 30" fill="none" xmlns="http://www.w3.org/2000/svg">
<path d="M37.4818 6.68281H36.0291V3.58354C36.0291 1.54964 34.3826 0 32.4455 0H22.5666C21.5012 0 20.5327 0.484262 19.8547 1.16223C19.1768 0.484262 18.2082 0 17.1429 0H7.36077C5.32688 0 3.68039 1.64649 3.68039 3.58354V6.68281H2.2276C0.968523 6.68281 0 7.74818 0 9.00726V18.2082C0 21.0169 2.0339 23.4383 4.74576 23.9225L3.87409 28.5714C3.87409 28.862 3.87409 29.0557 4.0678 29.2494C4.2615 29.4431 4.45521 29.6368 4.64891 29.6368H4.84262C5.32688 29.6368 5.71429 29.3462 5.81114 28.862L6.68281 23.9225H33.2203L34.092 28.862C34.1889 29.3462 34.5763 29.6368 35.0605 29.6368H35.2542C35.5448 29.6368 35.7385 29.4431 35.8354 29.2494C35.9322 29.0557 36.0291 28.7651 36.0291 28.5714L35.2542 23.8257C37.9661 23.2446 40 20.9201 40 18.1114V9.00726C39.7094 7.74818 38.7409 6.68281 37.4818 6.68281ZM1.84019 9.00726C1.84019 8.81356 2.0339 8.61985 2.2276 8.61985H4.84262C5.03632 8.61985 5.23002 8.81356 5.23002 9.00726V16.5617C5.23002 17.8208 6.2954 18.8862 7.55448 18.8862H18.5956C19.0799 18.8862 19.5642 18.6925 19.9516 18.4019C20.339 18.6925 20.8232 18.8862 21.3075 18.8862H32.3487C33.6077 18.8862 34.6731 17.8208 34.6731 16.5617V9.00726C34.6731 8.81356 34.8668 8.61985 35.0605 8.61985H37.5787C37.7724 8.61985 37.9661 8.81356 37.9661 9.00726V18.2082C37.9661 20.4358 36.2228 22.1792 33.9952 22.1792H5.90799C3.68039 22.1792 1.93705 20.4358 1.93705 18.2082V9.00726H1.84019ZM7.36077 1.84019H17.2397C18.2082 1.84019 18.9831 2.61501 18.9831 3.58354V11.816C18.8862 11.816 18.6925 11.816 18.5956 11.816H7.45763C7.36077 11.816 7.16707 11.816 7.07022 11.816V9.00726C7.07022 8.03874 6.4891 7.16707 5.61743 6.87651V3.58354C5.61743 2.61501 6.39225 1.84019 7.36077 1.84019ZM22.5666 1.84019H32.4455C33.414 1.84019 34.1889 2.61501 34.1889 3.58354V6.87651C33.3172 7.16707 32.7361 8.03874 32.7361 9.00726V11.816C32.6392 11.816 32.4455 11.816 32.3487 11.816H21.2107C21.1138 11.816 20.9201 11.816 20.8232 11.816V3.58354C20.8232 2.61501 21.5981 1.84019 22.5666 1.84019ZM20.8232 14.0436C20.8232 13.8499 21.0169 13.6562 21.2107 13.6562H32.2518C32.4455 13.6562 32.6392 13.8499 32.6392 14.0436V16.5617C32.6392 16.7554 32.4455 16.9492 32.2518 16.9492H21.2107C21.0169 16.9492 20.8232 16.7554 20.8232 16.5617V14.0436ZM18.4988 13.6562C18.6925 13.6562 18.8862 13.8499 18.8862 14.0436V16.5617C18.8862 16.7554 18.6925 16.9492 18.4988 16.9492H7.45763C7.26392 16.9492 7.07022 16.7554 7.07022 16.5617V14.0436C7.07022 13.8499 7.26392 13.6562 7.45763 13.6562H18.4988Z" fill="#2B2929"/>
<path d="M10.8474 7.45765H13.6561C14.1404 7.45765 14.6247 7.07024 14.6247 6.48912C14.6247 6.00486 14.2373 5.5206 13.6561 5.5206H10.8474C10.3632 5.5206 9.87891 5.90801 9.87891 6.48912C9.87891 7.07024 10.2663 7.45765 10.8474 7.45765Z" fill="#2B2929"/>
<path d="M26.0532 7.45765H28.862C29.3462 7.45765 29.8305 7.07024 29.8305 6.48912C29.8305 6.00486 29.4431 5.5206 28.862 5.5206H26.0532C25.569 5.5206 25.0847 5.90801 25.0847 6.48912C25.0847 7.07024 25.569 7.45765 26.0532 7.45765Z" fill="#2B2929"/>
</svg>
