<svg width="34" height="33" viewBox="0 0 34 33" fill="none" xmlns="http://www.w3.org/2000/svg">
<path d="M32.922 0H1.07805C0.497561 0 0 0.497561 0 1.07805V21.2293C0 21.8098 0.497561 22.3073 1.07805 22.3073H6.30244L4.80976 30.9317C4.72683 31.5122 5.05854 32.0927 5.63902 32.1756C6.21951 32.2585 6.8 31.8439 6.88293 31.3463L8.45854 22.3073H25.5415L27.1171 31.3463C27.2 31.8439 27.6146 32.2585 28.1951 32.2585C28.278 32.2585 28.278 32.2585 28.361 32.2585C28.9415 32.1756 29.3561 31.5951 29.1902 31.0146L27.6976 22.3902H32.922C33.5024 22.3902 34 21.8927 34 21.3122V1.07805C34 0.497561 33.5024 0 32.922 0ZM31.8439 12.1902V20.1512H2.1561V12.1902H31.8439ZM31.8439 2.1561V10.1171H2.1561V2.1561H31.8439Z" fill="#2B2929"/>
<path d="M17 7.62926C17.8244 7.62926 18.4927 6.96096 18.4927 6.13657C18.4927 5.31219 17.8244 4.64389 17 4.64389C16.1756 4.64389 15.5073 5.31219 15.5073 6.13657C15.5073 6.96096 16.1756 7.62926 17 7.62926Z" fill="#2B2929"/>
<path d="M17 17.6634C17.8293 17.6634 18.4927 17 18.4927 16.1708C18.4927 15.3415 17.8293 14.6781 17 14.6781C16.1707 14.6781 15.5073 15.3415 15.5073 16.1708C15.5073 17 16.1707 17.6634 17 17.6634Z" fill="#2B2929"/>
</svg>
