<svg width="38" height="40" viewBox="0 0 38 40" fill="none" xmlns="http://www.w3.org/2000/svg">
<path d="M36.6133 0H0.915332C0.366133 0 0 0.366133 0 0.915332V34.4165C0 34.8741 0.366133 35.3318 0.915332 35.3318H2.65446L2.01373 38.9931C2.01373 39.2677 2.01373 39.4508 2.1968 39.6339C2.37986 39.8169 2.56293 40 2.746 40H2.92906C3.38673 40 3.75286 39.7254 3.84439 39.2677L4.48513 35.3318H33.135L33.7757 39.2677C33.8673 39.7254 34.2334 40 34.6911 40H34.8741C35.3318 39.9085 35.6979 39.4508 35.6064 38.9931L34.9657 35.3318H36.6133C37.0709 35.3318 37.5286 34.9657 37.5286 34.4165V0.915332C37.5286 0.366133 37.1625 0 36.6133 0ZM35.7895 1.73913V33.5011H25.6293V1.73913H35.7895ZM21.0526 23.4325V30.7551H13.73V23.4325H21.0526ZM21.0526 13.73V21.6018H13.73V13.73H21.0526ZM21.0526 4.57666V11.9908H13.73V4.57666H21.0526ZM22.7918 31.5789V3.66133C22.7918 3.20366 22.4256 2.746 21.8764 2.746H13.6384V1.73913H23.7986V33.5011H13.73V32.4943H21.968C22.4256 32.4943 22.7918 32.0366 22.7918 31.5789ZM2.83753 3.66133V31.5789C2.83753 32.0366 3.20366 32.4943 3.75286 32.4943H11.9908V33.5011H1.73913V1.73913H11.8993V2.746H3.66133C3.20366 2.83753 2.83753 3.20366 2.83753 3.66133ZM11.8993 23.4325V30.7551H4.57666V23.4325H11.8993ZM11.8993 13.73V21.6018H4.57666V13.73H11.8993ZM11.8993 4.57666V11.9908H4.57666V4.57666H11.8993Z" fill="#2B2929"/>
<path d="M10.4348 18.8558C11.0755 18.8558 11.6247 18.3066 11.6247 17.6659C11.6247 17.0252 11.0755 16.476 10.4348 16.476C9.79407 16.476 9.24487 17.0252 9.24487 17.6659C9.24487 18.3066 9.79407 18.8558 10.4348 18.8558Z" fill="#2B2929"/>
<path d="M15.1946 18.8558C15.8353 18.8558 16.3845 18.3066 16.3845 17.6659C16.3845 17.0252 15.8353 16.476 15.1946 16.476C14.5538 16.476 14.0046 17.0252 14.0046 17.6659C14.0046 18.3066 14.5538 18.8558 15.1946 18.8558Z" fill="#2B2929"/>
</svg>
