<svg width="40" height="36" viewBox="0 0 40 36" fill="none" xmlns="http://www.w3.org/2000/svg">
<path d="M39.0244 11.7073H22.8293C23.2195 11.4146 23.5122 11.0244 23.8049 10.6341C24.3902 9.65854 24.5854 8.48781 24.3902 7.31707C25.3659 6.04878 25.9512 4.4878 25.9512 2.82927C25.9512 1.26829 24.7805 0 23.4146 0C23.122 0 22.7317 0.097561 22.439 0.195122C22.2439 0.097561 22.0488 0 21.8537 0H17.561C17.1707 0 16.878 0.195122 16.6829 0.487805C16.4878 0.780488 16.4878 1.17073 16.6829 1.46341L16.878 1.85366C17.0732 2.04878 17.0732 2.34146 17.0732 2.63415C17.0732 3.60976 16.7805 4.58537 16.1951 5.46341C15.2195 7.02439 15.122 8.97561 16.0976 10.5366C16.3902 10.9268 16.6829 11.3171 17.0732 11.6098H0.97561C0.390244 11.6098 0 12.0976 0 12.5854C0 13.1707 0.487805 13.561 0.97561 13.561H4.29268V34.6341C4.29268 35.2195 4.78049 35.6098 5.26829 35.6098C5.7561 35.6098 6.2439 35.122 6.2439 34.6341V18.7317H33.6585V34.7317C33.6585 35.3171 34.1463 35.7073 34.6341 35.7073C35.122 35.7073 35.6098 35.2195 35.6098 34.7317V13.6585H39.0244C39.6098 13.6585 40 13.1707 40 12.6829C40 12.0976 39.5122 11.7073 39.0244 11.7073ZM23.9024 2.73171C23.9024 3.5122 23.7073 4.29268 23.3171 5.07317C22.9268 4.39024 22.7317 3.5122 22.7317 2.73171C22.8293 2.34146 23.122 1.95122 23.4146 1.95122C23.7073 1.95122 23.9024 2.34146 23.9024 2.73171ZM19.122 1.95122H20.878V2.82927C20.878 4.19512 21.2683 5.46341 22.0488 6.53659C22.6341 7.5122 22.6341 8.68293 22.1463 9.56098C22.0488 9.65854 21.9512 9.7561 21.8537 9.85366H18.2439C18.1463 9.7561 18.0488 9.65854 17.9512 9.56098C17.3659 8.58537 17.4634 7.41463 18.0488 6.53659C18.8293 5.36585 19.2195 4 19.2195 2.63415C19.122 2.43902 19.122 2.14634 19.122 1.95122ZM33.7561 13.6585V16.7805H6.2439V13.6585H33.7561Z" fill="#2B2929"/>
</svg>
