<svg width="39" height="40" viewBox="0 0 39 40" fill="none" xmlns="http://www.w3.org/2000/svg">
<path d="M26.4795 22.2814C26.2878 22.2814 26.2878 22.0897 26.0962 22.0897C28.9712 19.9814 30.5045 16.723 30.5045 13.0813C30.5045 12.698 30.5045 12.3147 30.5045 11.9313V11.7397L31.0795 7.13963C31.4629 4.07294 29.3545 1.38959 26.4795 0.814588L24.7545 0.431253C20.9211 -0.143751 17.0878 -0.143751 13.2544 0.431253L11.7211 0.814588C8.6544 1.38959 6.54606 4.07294 6.92939 7.13963L7.5044 11.7397V11.9313C7.5044 12.3147 7.5044 12.698 7.5044 13.0813C7.5044 16.5313 9.03774 19.9814 11.9128 22.0897C11.7211 22.0897 11.7211 22.2814 11.5294 22.2814C5.20438 24.9647 0.796024 30.9064 0.0293527 37.8065C-0.162315 38.7648 0.604356 39.7231 1.75436 39.9148C2.90437 40.1065 35.2962 39.9148 36.2546 39.9148H36.4462C37.4046 39.7231 38.1712 38.7648 38.1712 37.8065C37.2129 30.9064 32.8045 24.9647 26.4795 22.2814ZM19.0045 28.2231L15.7461 24.9647C17.8545 24.5814 19.9628 24.5814 22.0711 24.9647L19.0045 28.2231ZM19.0045 20.748C14.7878 20.748 11.5294 17.4897 11.3378 13.273H26.6712C26.4795 17.4897 23.2212 20.748 19.0045 20.748Z" fill="#535353"/>
</svg>
