<svg version="1.1" id="Layer_1" xmlns="http://www.w3.org/2000/svg" xmlns:xlink="http://www.w3.org/1999/xlink" x="0px" y="0px" viewBox="0 0 100 100" style="enable-background:new 0 0 511.783 511.783;" xml:space="preserve" width="100" height="100"><g transform="translate(1 1)"><g><path style="fill:#63D3FD;" d="M52.03 89.97c-10.852 10.852 -28.147 10.852 -39 0s-10.852 -28.147 0 -39l18.991 -22.382 20.008 22.382c11.7 10.852 12.039 28.317 0 39"/><path style="fill:#63D3FD;" d="M48.639 89.97c-10.852 10.852 -28.147 10.852 -39 0s-10.852 -28.147 0 -39L28.63 28.588l20.008 22.382c11.7 10.852 12.039 28.317 0 39"/></g><path style="fill:#3DB9F9;" d="M48.639 89.97c-10.852 10.852 -28.147 10.852 -39 0s-10.852 -28.147 0 -39L28.63 28.588l20.008 22.382c11.7 10.852 12.039 28.317 0 39"/><path style="fill:#63D3FD;" d="M43.552 89.97c-10.852 10.852 -23.061 10.852 -33.913 0s-10.852 -28.147 0 -39l18.991 -22.382 14.922 22.382c11.7 10.852 12.039 28.317 0 39"/><path style="fill:#3DB9F9;" d="M90.691 49.783c-7.969 7.969 -21.026 7.969 -28.995 0 -7.8 -8.139 -7.8 -21.535 0 -29.843l14.413 -18.482 14.582 18.313c7.63 7.8 7.63 21.196 0 30.013"/><g><path style="fill:#63D3FD;" d="M94.082 49.783c-7.969 7.969 -21.026 7.969 -28.995 0 -7.8 -8.139 -7.8 -21.535 0 -29.843l14.413 -18.482 14.582 18.313c7.63 7.8 7.63 21.196 0 30.013"/><path style="fill:#63D3FD;" d="M85.604 49.783q-11.954 11.954 -23.908 0c-7.8 -8.139 -7.8 -21.535 0 -29.843l14.413 -18.482 5.595 10.852c1.865 3.73 4.069 7.122 6.443 10.682 5.087 7.8 4.239 18.991 -2.543 26.791"/></g><path d="M76.108 57.414c-5.765 0 -11.361 -2.204 -15.769 -6.443 -8.309 -8.817 -8.309 -23.23 0 -32.217l14.413 -18.313c0.678 -0.848 2.035 -0.848 2.713 0l14.413 18.313c8.309 8.309 8.309 22.722 0 32.217 -4.409 4.239 -10.004 6.443 -15.77 6.443m0 -53.243 -13.226 16.617c-7.122 7.8 -7.291 20.178 0 27.808 7.291 7.291 19.161 7.291 26.621 0 7.122 -8.139 7.122 -20.517 0 -27.639l-0.17 -0.17zm14.583 45.612"/><path d="M76.108 50.631c-4.069 0 -7.969 -1.526 -10.852 -4.409 -5.935 -6.274 -5.765 -16.617 0 -22.891l0.17 -0.17c0.678 -0.678 1.696 -0.678 2.374 0s0.678 1.696 0 2.374l-0.17 0.17c-4.748 5.087 -4.748 13.226 -0.17 18.313 2.204 2.204 5.257 3.391 8.478 3.391 1.017 0 1.696 0.678 1.696 1.696q0 1.526 -1.526 1.526"/><path d="M29.139 99.805c-7.8 0 -15.091 -3.052 -20.687 -8.648C2.857 85.731 -0.195 78.27 -0.195 70.47s3.052 -15.091 8.648 -20.687L27.443 27.401c0.339 -0.339 0.848 -0.509 1.356 -0.678 0.509 0 1.017 0.17 1.356 0.509l19.839 22.382c6.104 5.596 9.496 13.056 9.496 20.856s-3.391 15.091 -9.496 20.517c-5.765 5.765 -13.056 8.817 -20.856 8.817m-0.509 -68.673 -17.804 21.026c-4.917 4.917 -7.63 11.53 -7.63 18.313s2.713 13.396 7.63 18.313 11.361 7.63 18.313 7.63 13.396 -2.713 18.313 -7.63c5.426 -4.748 8.309 -11.191 8.478 -17.974 0 -6.952 -2.883 -13.565 -8.478 -18.482 0 0 -0.17 0 -0.17 -0.17z"/><path d="M29.139 93.022c-5.935 0 -11.7 -2.374 -15.939 -6.613s-6.613 -9.835 -6.613 -15.939c0 -5.935 2.374 -11.7 6.613 -15.939l0.17 -0.17c0.678 -0.678 1.696 -0.678 2.374 0s0.678 1.696 0 2.374l-0.17 0.17c-3.561 3.561 -5.596 8.478 -5.596 13.565s2.035 9.835 5.596 13.565c3.561 3.561 8.478 5.596 13.565 5.596 1.017 0 1.696 0.678 1.696 1.696s-0.848 1.696 -1.696 1.696"/></g></svg>