<svg version="1.1" id="Capa_1" xmlns="http://www.w3.org/2000/svg" xmlns:xlink="http://www.w3.org/1999/xlink" x="0px" y="0px" viewBox="0 0 600 600" style="enable-background:new 0 0 60 60;" xml:space="preserve" width="600" height="600"><path style="fill:#E64C3C;" d="M46.45 455.77a260.4 260.4 0 0 1 -0.29 -11.54c0 -139.97 113.87 -253.85 253.85 -253.85S553.86 304.25 553.86 444.23q-0.02 5.8 -0.29 11.54h46.16c0.12 -3.84 0.27 -7.67 0.27 -11.54 0 -165.69 -134.31 -300 -300 -300S0 278.54 0 444.23c0 3.87 0.15 7.7 0.29 11.54z"/><path style="fill:#F0C419;" d="M92.89 455.77c-0.21 -3.84 -0.58 -7.64 -0.58 -11.54 0 -114.52 93.17 -207.69 207.69 -207.69s207.69 93.18 207.69 207.69c0 3.89 -0.37 7.7 -0.58 11.54H553.56q0.27 -5.74 0.29 -11.54C553.85 304.26 439.98 190.38 300 190.38S46.15 304.26 46.15 444.23q0.02 5.8 0.29 11.54z"/><path style="fill:#71C285;" d="M139.05 455.77c-0.27 -3.83 -0.58 -7.64 -0.58 -11.54 0 -89.07 72.46 -161.54 161.54 -161.54s161.54 72.46 161.54 161.54c0 3.89 -0.31 7.71 -0.58 11.54h46.15c0.21 -3.84 0.58 -7.64 0.58 -11.54 0 -114.52 -93.17 -207.69 -207.69 -207.69S92.311 329.71 92.311 444.229c0 3.89 0.37 7.7 0.58 11.54z"/><path style="fill:#0096E6;" d="M185.2 455.77a120 120 0 0 1 -0.58 -11.54c0 -63.62 51.76 -115.38 115.38 -115.38s115.38 51.77 115.38 115.38q-0.01 5.84 -0.58 11.54h46.15c0.27 -3.83 0.58 -7.64 0.58 -11.54 0 -89.07 -72.46 -161.54 -161.54 -161.54s-161.54 72.46 -161.54 161.54c0 3.89 0.31 7.71 0.58 11.54z"/><path style="fill:#546A79;" d="M231.81 455.77a69.96 69.96 0 0 1 -1.04 -11.54c0 -38.18 31.05 -69.23 69.23 -69.23s69.23 31.05 69.23 69.23c0 3.94 -0.41 7.78 -1.04 11.54h46.61q0.57 -5.7 0.58 -11.54c0 -63.62 -51.76 -115.38 -115.38 -115.38s-115.38 51.77 -115.38 115.38q0.01 5.84 0.58 11.54z"/></svg>